<?xml version="1.0" encoding="UTF-8"?><!DOCTYPE svg PUBLIC "-//W3C//DTD SVG 1.1//EN" "http://www.w3.org/Graphics/SVG/1.1/DTD/svg11.dtd"><svg xmlns="http://www.w3.org/2000/svg"><symbol id="logo" viewBox="0 0 170 51.2"><style>.st0{fill:#de001e}</style><path class="st0" d="M8.6 50.5H0V.7h12c9.6 0 14.5 4.1 14.5 14.7 0 8-3.1 11.2-6 12.6l7.2 22.6H19l-6-20.7c-1.1.1-2.9.2-4.4.2v20.4zm0-27.5h3c4.6 0 6.4-1.7 6.4-7.7s-1.7-7.7-6.4-7.7h-3V23zm28.5 27.5h-8.3L38 .7h10.6l9.2 49.8h-8.3l-1.5-11h-9.4l-1.5 11zM39.9 32h6.9l-3.4-21.4h-.1L39.9 32zM59.6.7h12.7c9.2 0 13.3 4.7 13.3 13.2 0 4.3-1.8 8.8-5.9 10.4 4.3 1.9 6.9 5.4 6.9 11.8 0 8.2-3.7 14.4-13.4 14.4H59.6V.7zm8.6 20.4h3.1c3.2 0 5.7-2.2 5.7-6.4 0-4.6-1.8-7-5.6-7h-3.2v13.4zm0 22.4h3.6c4.6 0 6.2-2.6 6.2-7.7s-1.9-7.7-7-7.7h-2.8v15.4zm26.6 7h-8.3L95.7.7h10.6l9.2 49.8h-8.3l-1.5-11h-9.4l-1.5 11zM97.5 32h6.9L101 10.6h-.1L97.5 32zm35.6-19c-.3-4.3-2.6-5.5-4.6-5.5-2.8 0-4.3 1.8-4.3 4.9 0 8.5 17.4 12.6 17.4 26.1 0 8.2-5.5 12.8-13.5 12.8-7.9 0-12.5-6.4-12.8-13.8l8.1-1.2c.3 5 2.3 7.5 5.1 7.5 3 0 5-1.6 5-4.6 0-9.9-17.4-12.5-17.4-26.8 0-7.9 4.8-12.4 13.3-12.4 7 0 11.1 5 11.9 12.1l-8.2.9zm10.7 37.5V.7h8.6V21h9.1V.7h8.6v49.8h-8.6V28.4h-9.1v22.1h-8.6z"/></symbol></svg>