<?xml version="1.0" encoding="utf-8"?>
<!-- Generator: Adobe Illustrator 19.1.0, SVG Export Plug-In . SVG Version: 6.00 Build 0)  -->
<svg version="1.1" id="Layer_1" xmlns="http://www.w3.org/2000/svg" xmlns:xlink="http://www.w3.org/1999/xlink" x="0px" y="0px"
	 viewBox="0 0 170 51.2" style="enable-background:new 0 0 170 51.2;" xml:space="preserve">
<style type="text/css">
	.st0{fill:#DE001E;}
</style>
<g>
	<path class="st0" d="M8.6,50.5H0V0.7h12c9.6,0,14.5,4.1,14.5,14.7c0,8-3.1,11.2-6,12.6l7.2,22.6H19L13,29.9
		c-1.1,0.1-2.9,0.2-4.4,0.2V50.5z M8.6,23h3c4.6,0,6.4-1.7,6.4-7.7s-1.7-7.7-6.4-7.7h-3V23z"/>
	<path class="st0" d="M37.1,50.5h-8.3L38,0.7h10.6l9.2,49.8h-8.3l-1.5-11h-9.4L37.1,50.5z M39.9,32h6.9l-3.4-21.4h-0.1L39.9,32z"/>
	<path class="st0" d="M59.6,0.7h12.7c9.2,0,13.3,4.7,13.3,13.2c0,4.3-1.8,8.8-5.9,10.4c4.3,1.9,6.9,5.4,6.9,11.8
		c0,8.2-3.7,14.4-13.4,14.4H59.6V0.7z M68.2,21.1h3.1c3.2,0,5.7-2.2,5.7-6.4c0-4.6-1.8-7-5.6-7h-3.2V21.1z M68.2,43.5h3.6
		c4.6,0,6.2-2.6,6.2-7.7c0-5.1-1.9-7.7-7-7.7h-2.8V43.5z"/>
	<path class="st0" d="M94.8,50.5h-8.3l9.2-49.8h10.6l9.2,49.8h-8.3l-1.5-11h-9.4L94.8,50.5z M97.5,32h6.9l-3.4-21.4h-0.1L97.5,32z"
		/>
	<path class="st0" d="M133.1,13c-0.3-4.3-2.6-5.5-4.6-5.5c-2.8,0-4.3,1.8-4.3,4.9c0,8.5,17.4,12.6,17.4,26.1
		c0,8.2-5.5,12.8-13.5,12.8c-7.9,0-12.5-6.4-12.8-13.8l8.1-1.2c0.3,5,2.3,7.5,5.1,7.5c3,0,5-1.6,5-4.6c0-9.9-17.4-12.5-17.4-26.8
		c0-7.9,4.8-12.4,13.3-12.4c7,0,11.1,5,11.9,12.1L133.1,13z"/>
	<path class="st0" d="M143.8,50.5V0.7h8.6V21h9.1V0.7h8.6v49.8h-8.6V28.4h-9.1v22.1H143.8z"/>
</g>
</svg>
